<?xml version="1.0" encoding="utf-8"?>
<!-- Generator: Adobe Illustrator 16.0.0, SVG Export Plug-In . SVG Version: 6.00 Build 0)  -->
<!DOCTYPE svg PUBLIC "-//W3C//DTD SVG 1.1//EN" "http://www.w3.org/Graphics/SVG/1.1/DTD/svg11.dtd">
<svg version="1.1" id="Слой_1" xmlns="http://www.w3.org/2000/svg" xmlns:xlink="http://www.w3.org/1999/xlink" x="0px" y="0px"
	 width="66.888px" height="79.018px" viewBox="0 0 66.888 79.018" style="enable-background:new 0 0 66.888 79.018;"
	 xml:space="preserve">
<g>
	<defs>
		<rect id="SVGID_1_" width="66.888" height="79.018"/>
	</defs>
	<clipPath id="SVGID_2_">
		<use xlink:href="#SVGID_1_"  style="overflow:visible;"/>
	</clipPath>
	
		<path style="clip-path:url(#SVGID_2_);fill:none;stroke:#A0C34B;stroke-width:2;stroke-linecap:round;stroke-linejoin:round;stroke-miterlimit:10;" d="
		M17.86,22.33c0,11.78,6.978,21.329,15.584,21.329c8.605,0,15.584-9.549,15.584-21.329S48.679,1,33.444,1
		C18.209,1,17.86,10.55,17.86,22.33z"/>
	
		<line style="clip-path:url(#SVGID_2_);fill:none;stroke:#A0C34B;stroke-width:2;stroke-linecap:round;stroke-linejoin:round;stroke-miterlimit:10;" x1="26.711" y1="41.57" x2="24.273" y2="48.882"/>
	
		<line style="clip-path:url(#SVGID_2_);fill:none;stroke:#A0C34B;stroke-width:2;stroke-linecap:round;stroke-linejoin:round;stroke-miterlimit:10;" x1="40.177" y1="41.57" x2="42.614" y2="48.882"/>
	
		<path style="clip-path:url(#SVGID_2_);fill:none;stroke:#A0C34B;stroke-width:2;stroke-linecap:round;stroke-linejoin:round;stroke-miterlimit:10;" d="
		M65.889,69.44c0-12.259-10.029-19.502-22.287-19.502H23.286C11.029,49.938,1,57.181,1,69.44v8.578h64.889V69.44z"/>
	
		<polyline style="clip-path:url(#SVGID_2_);fill:none;stroke:#A0C34B;stroke-width:2;stroke-linecap:round;stroke-linejoin:round;stroke-miterlimit:10;" points="
		53.226,51.853 33.444,75.571 13.662,51.853 	"/>
	
		<polyline style="clip-path:url(#SVGID_2_);fill:none;stroke:#A0C34B;stroke-width:2;stroke-linecap:round;stroke-linejoin:round;stroke-miterlimit:10;" points="
		26.83,67.027 29.904,50.635 36.983,50.635 40.069,67.091 	"/>
	
		<path style="clip-path:url(#SVGID_2_);fill:none;stroke:#A0C34B;stroke-width:2;stroke-linecap:round;stroke-linejoin:round;stroke-miterlimit:10;" d="
		M48.865,15.449c-0.021-0.771-0.037-1.517-0.18-2.187c-0.128-0.618-0.366-1.187-0.818-1.69l-0.03-0.039
		c-0.685-0.738-1.582-0.99-2.634-0.984c-1.208,0.009-2.671,0.344-4.256,0.709h-0.004c-2.279,0.523-4.756,1.087-7.487,1.087
		c-2.704,0-5.156-0.553-7.419-1.073c-0.048-0.006-0.092-0.014-0.136-0.03c-1.557-0.355-3.002-0.684-4.195-0.693
		c-1.07-0.006-1.976,0.253-2.664,1.02c-0.452,0.503-0.689,1.075-0.816,1.69c-0.139,0.67-0.162,1.417-0.179,2.19"/>
</g>
</svg>
