<?xml version="1.0" encoding="utf-8"?>
<!-- Generator: Adobe Illustrator 16.0.0, SVG Export Plug-In . SVG Version: 6.00 Build 0)  -->
<!DOCTYPE svg PUBLIC "-//W3C//DTD SVG 1.1//EN" "http://www.w3.org/Graphics/SVG/1.1/DTD/svg11.dtd">
<svg version="1.1" id="Слой_1" xmlns="http://www.w3.org/2000/svg" xmlns:xlink="http://www.w3.org/1999/xlink" x="0px" y="0px"
	 width="57.81px" height="42px" viewBox="0 0 57.81 42" style="enable-background:new 0 0 57.81 42;" xml:space="preserve">
<g>
	<defs>
		<rect id="SVGID_1_" width="57.81" height="42"/>
	</defs>
	<clipPath id="SVGID_2_">
		<use xlink:href="#SVGID_1_"  style="overflow:visible;"/>
	</clipPath>
	<path style="clip-path:url(#SVGID_2_);fill:none;stroke:#A0C34B;stroke-width:2;stroke-miterlimit:10;" d="M52.51,16.27
		l-4.479,1.95v14.97c0,0.73-0.37,1.41-0.97,1.82C41.12,39,34.46,41,27.8,41c-6.65,0-13.31-2-19.25-5.99
		c-0.61-0.41-0.97-1.09-0.97-1.82V18.22l-5.26-2.29C1.52,15.58,1,14.79,1,13.92s0.52-1.67,1.32-2.02L26.93,1.18
		c0.55-0.24,1.19-0.24,1.75,0L53.29,11.9c0.54,0.24,0.95,0.68,1.16,1.21c0.16,0.19,0.26,0.43,0.26,0.7v9.437
		c0.66,0.38,2.101,1.09,2.101,1.899v7.69c0,1.21-0.99,2.2-2.2,2.2s-2.2-0.99-2.2-2.2v-7.69c0-0.81,1.64-1.52,2.3-1.899 M54.71,15.3
		L28.405,26.897L2.32,15.93"/>
</g>
</svg>
