<?xml version="1.0" encoding="utf-8"?>
<!-- Generator: Adobe Illustrator 16.0.0, SVG Export Plug-In . SVG Version: 6.00 Build 0)  -->
<!DOCTYPE svg PUBLIC "-//W3C//DTD SVG 1.1//EN" "http://www.w3.org/Graphics/SVG/1.1/DTD/svg11.dtd">
<svg version="1.1" id="Слой_1" xmlns="http://www.w3.org/2000/svg" xmlns:xlink="http://www.w3.org/1999/xlink" x="0px" y="0px"
	 width="66.982px" height="81.296px" viewBox="0 0 66.982 81.296" style="enable-background:new 0 0 66.982 81.296;"
	 xml:space="preserve">
<line style="fill:none;stroke:#A0C34B;stroke-width:2;stroke-linecap:round;stroke-linejoin:round;stroke-miterlimit:10;" x1="33.527" y1="20.977" x2="33.527" y2="60.781"/>
<line style="fill:none;stroke:#A0C34B;stroke-width:2;stroke-linecap:round;stroke-linejoin:round;stroke-miterlimit:10;" x1="9.653" y1="41.424" x2="56.959" y2="41.424"/>
<g>
	<defs>
		<rect id="SVGID_1_" y="0" width="66.983" height="81.297"/>
	</defs>
	<clipPath id="SVGID_2_">
		<use xlink:href="#SVGID_1_"  style="overflow:visible;"/>
	</clipPath>
	
		<circle style="clip-path:url(#SVGID_2_);fill:none;stroke:#A0C34B;stroke-width:2;stroke-linecap:round;stroke-linejoin:round;stroke-miterlimit:10;" cx="53.31" cy="26.898" r="4.117"/>
	
		<circle style="clip-path:url(#SVGID_2_);fill:none;stroke:#A0C34B;stroke-width:2;stroke-linecap:round;stroke-linejoin:round;stroke-miterlimit:10;" cx="53.31" cy="55.898" r="4.117"/>
	
		<circle style="clip-path:url(#SVGID_2_);fill:none;stroke:#A0C34B;stroke-width:2;stroke-linecap:round;stroke-linejoin:round;stroke-miterlimit:10;" cx="13.309" cy="26.898" r="4.117"/>
	
		<circle style="clip-path:url(#SVGID_2_);fill:none;stroke:#A0C34B;stroke-width:2;stroke-linecap:round;stroke-linejoin:round;stroke-miterlimit:10;" cx="13.309" cy="55.898" r="4.117"/>
	
		<circle style="clip-path:url(#SVGID_2_);fill:none;stroke:#A0C34B;stroke-width:2;stroke-linecap:round;stroke-linejoin:round;stroke-miterlimit:10;" cx="33.528" cy="64.898" r="4.117"/>
	
		<circle style="clip-path:url(#SVGID_2_);fill:none;stroke:#A0C34B;stroke-width:2;stroke-linecap:round;stroke-linejoin:round;stroke-miterlimit:10;" cx="33.528" cy="16.898" r="4.117"/>
	
		<path style="clip-path:url(#SVGID_2_);fill:none;stroke:#A0C34B;stroke-width:2;stroke-linecap:round;stroke-linejoin:round;stroke-miterlimit:10;" d="
		M53.309,51.781c0.607,0,1.181,0.139,1.698,0.375c1.618-3.231,2.541-6.871,2.541-10.731c0-3.875-0.924-7.535-2.554-10.777
		c-0.516,0.232-1.083,0.368-1.686,0.368c-2.272,0-4.117-1.843-4.117-4.117c0-1.048,0.403-1.993,1.049-2.72
		c-3.41-3.304-7.798-5.604-12.686-6.43c-0.392,1.865-2.045,3.267-4.027,3.267s-3.636-1.402-4.027-3.268
		c-5.004,0.845-9.48,3.24-12.923,6.67c0.526,0.692,0.85,1.545,0.85,2.481c0,2.274-1.844,4.117-4.118,4.117
		c-0.46,0-0.895-0.093-1.308-0.232c-1.589,3.208-2.493,6.817-2.493,10.641c0,3.807,0.9,7.396,2.476,10.595
		c0.418-0.144,0.859-0.238,1.325-0.238c1.676,0,3.11,1.004,3.754,2.439c4.3-1.938,10.091-3.128,16.464-3.128
		c6.203,0,11.85,1.128,16.111,2.977C50.314,52.717,51.697,51.781,53.309,51.781z"/>
	
		<path style="clip-path:url(#SVGID_2_);fill:none;stroke:#A0C34B;stroke-width:2;stroke-linecap:round;stroke-linejoin:round;stroke-miterlimit:10;" d="
		M50.238,24.18c-3.409-3.305-7.796-5.604-12.684-6.431c-0.392,1.866-2.045,3.267-4.027,3.267c-1.982,0-3.635-1.401-4.027-3.267
		c-5.005,0.846-9.467,3.254-12.911,6.685c0.518,0.689,0.837,1.536,0.837,2.465c0,0.616-0.145,1.195-0.387,1.72
		c4.302,1.945,10.103,3.139,16.488,3.139c6.215,0,11.87-1.133,16.135-2.987c-0.291-0.564-0.471-1.194-0.471-1.872
		C49.191,25.851,49.595,24.906,50.238,24.18z"/>
	
		<path style="clip-path:url(#SVGID_2_);fill:none;stroke:#A0C34B;stroke-width:2;stroke-linecap:round;stroke-linejoin:round;stroke-miterlimit:10;" d="
		M37.224,18.681c-0.666,1.377-2.063,2.334-3.696,2.334c-1.631,0-3.03-0.957-3.695-2.334c-4.535,3.217-7.799,12.181-7.799,22.744
		c0,10.328,3.12,19.132,7.498,22.525c0.429-1.815,2.05-3.17,3.997-3.17c1.946,0,3.568,1.354,3.997,3.17
		c4.378-3.394,7.498-12.197,7.498-22.525C45.022,30.862,41.758,21.898,37.224,18.681z"/>
	
		<path style="clip-path:url(#SVGID_2_);fill:none;stroke:#A0C34B;stroke-width:2;stroke-linecap:round;stroke-linejoin:round;stroke-miterlimit:10;" d="
		M49.191,55.898c0-0.661,0.17-1.276,0.447-1.83c-4.261-1.847-9.908-2.976-16.111-2.976c-6.374,0-12.165,1.189-16.465,3.128
		c0.23,0.514,0.364,1.079,0.364,1.678c0,0.942-0.329,1.801-0.861,2.494c3.431,3.428,7.876,5.839,12.864,6.698
		c-0.003-0.065-0.019-0.127-0.019-0.192c0-2.273,1.844-4.117,4.117-4.117c2.274,0,4.117,1.844,4.117,4.117
		c0,0.065-0.016,0.127-0.018,0.192c4.872-0.838,9.228-3.156,12.626-6.458C49.6,57.904,49.191,56.953,49.191,55.898z"/>
	
		<polyline style="clip-path:url(#SVGID_2_);fill:none;stroke:#A0C34B;stroke-width:2;stroke-linecap:round;stroke-linejoin:round;stroke-miterlimit:10;" points="
		29.371,5.167 33.538,1 33.538,1.255 33.538,12.281 	"/>
	
		<line style="clip-path:url(#SVGID_2_);fill:none;stroke:#A0C34B;stroke-width:2;stroke-linecap:round;stroke-linejoin:round;stroke-miterlimit:10;" x1="33.538" y1="1" x2="37.705" y2="5.167"/>
	
		<polyline style="clip-path:url(#SVGID_2_);fill:none;stroke:#A0C34B;stroke-width:2;stroke-linecap:round;stroke-linejoin:round;stroke-miterlimit:10;" points="
		37.705,76.129 33.538,80.296 33.538,80.042 33.538,69.016 	"/>
	
		<line style="clip-path:url(#SVGID_2_);fill:none;stroke:#A0C34B;stroke-width:2;stroke-linecap:round;stroke-linejoin:round;stroke-miterlimit:10;" x1="33.538" y1="80.296" x2="29.371" y2="76.129"/>
	
		<polyline style="clip-path:url(#SVGID_2_);fill:none;stroke:#A0C34B;stroke-width:2;stroke-linecap:round;stroke-linejoin:round;stroke-miterlimit:10;" points="
		1.797,23.027 1,17.189 1.203,17.343 9.983,24.013 	"/>
	
		<line style="clip-path:url(#SVGID_2_);fill:none;stroke:#A0C34B;stroke-width:2;stroke-linecap:round;stroke-linejoin:round;stroke-miterlimit:10;" x1="1" y1="17.189" x2="6.839" y2="16.392"/>
	
		<polyline style="clip-path:url(#SVGID_2_);fill:none;stroke:#A0C34B;stroke-width:2;stroke-linecap:round;stroke-linejoin:round;stroke-miterlimit:10;" points="
		65.186,23.027 65.982,17.189 65.779,17.343 57,24.013 	"/>
	
		<line style="clip-path:url(#SVGID_2_);fill:none;stroke:#A0C34B;stroke-width:2;stroke-linecap:round;stroke-linejoin:round;stroke-miterlimit:10;" x1="65.982" y1="17.189" x2="60.144" y2="16.392"/>
	
		<polyline style="clip-path:url(#SVGID_2_);fill:none;stroke:#A0C34B;stroke-width:2;stroke-linecap:round;stroke-linejoin:round;stroke-miterlimit:10;" points="
		1.797,59.377 1,65.216 1.203,65.062 9.983,58.391 	"/>
	
		<line style="clip-path:url(#SVGID_2_);fill:none;stroke:#A0C34B;stroke-width:2;stroke-linecap:round;stroke-linejoin:round;stroke-miterlimit:10;" x1="1" y1="65.216" x2="6.839" y2="66.013"/>
	
		<polyline style="clip-path:url(#SVGID_2_);fill:none;stroke:#A0C34B;stroke-width:2;stroke-linecap:round;stroke-linejoin:round;stroke-miterlimit:10;" points="
		65.186,59.377 65.982,65.216 65.779,65.062 57,58.391 	"/>
	
		<line style="clip-path:url(#SVGID_2_);fill:none;stroke:#A0C34B;stroke-width:2;stroke-linecap:round;stroke-linejoin:round;stroke-miterlimit:10;" x1="65.982" y1="65.216" x2="60.144" y2="66.013"/>
</g>
</svg>
