<?xml version="1.0" encoding="utf-8"?>
<!-- Generator: Adobe Illustrator 16.0.0, SVG Export Plug-In . SVG Version: 6.00 Build 0)  -->
<!DOCTYPE svg PUBLIC "-//W3C//DTD SVG 1.1//EN" "http://www.w3.org/Graphics/SVG/1.1/DTD/svg11.dtd">
<svg version="1.1" id="Слой_1" xmlns="http://www.w3.org/2000/svg" xmlns:xlink="http://www.w3.org/1999/xlink" x="0px" y="0px"
	 width="44.506px" height="39.596px" viewBox="0 0 44.506 39.596" style="enable-background:new 0 0 44.506 39.596;"
	 xml:space="preserve">
<g>
	<defs>
		<rect id="SVGID_1_" y="0" width="44.506" height="39.596"/>
	</defs>
	<clipPath id="SVGID_2_">
		<use xlink:href="#SVGID_1_"  style="overflow:visible;"/>
	</clipPath>
	<path style="clip-path:url(#SVGID_2_);fill:none;stroke:#A0C34B;stroke-width:2;stroke-linecap:round;stroke-miterlimit:10;" d="
		M25.155,10.105v-0.004c0.619,0,1.188,0.256,1.6,0.668c0.405,0.406,0.66,0.973,0.66,1.595l-0.003,3.67h0.003
		c0,0.623-0.255,1.19-0.667,1.599c-0.407,0.409-0.974,0.663-1.596,0.66l-6.207-0.001v0.001c-0.623,0-1.189-0.253-1.599-0.665
		c-0.409-0.409-0.661-0.976-0.661-1.598v-3.67h-0.003c0-0.623,0.258-1.187,0.669-1.599c0.407-0.407,0.974-0.66,1.596-0.66
		L25.155,10.105z"/>
	
		<line style="clip-path:url(#SVGID_2_);fill:none;stroke:#A0C34B;stroke-width:2;stroke-linecap:round;stroke-miterlimit:10;" x1="22.049" y1="18.661" x2="22.049" y2="38.597"/>
	
		<line style="clip-path:url(#SVGID_2_);fill:none;stroke:#A0C34B;stroke-width:2;stroke-linecap:round;stroke-miterlimit:10;" x1="22.049" y1="1" x2="22.049" y2="9.697"/>
	<path style="clip-path:url(#SVGID_2_);fill:none;stroke:#A0C34B;stroke-width:2;stroke-linecap:round;stroke-miterlimit:10;" d="
		M3.259,30.02L3.259,30.02c-0.62,0.001-1.187-0.252-1.599-0.664C1.254,28.946,1,28.382,1,27.761l0.003-3.672H1
		c0-0.625,0.256-1.188,0.665-1.601c0.41-0.406,0.974-0.66,1.597-0.66l6.21,0.004V21.83c0.62,0,1.186,0.254,1.596,0.666
		c0.409,0.408,0.663,0.977,0.66,1.597l-0.002,3.669h0.005c0,0.626-0.256,1.189-0.666,1.602c-0.41,0.406-0.976,0.66-1.599,0.66
		L3.259,30.02z"/>
	
		<line style="clip-path:url(#SVGID_2_);fill:none;stroke:#A0C34B;stroke-width:2;stroke-linecap:round;stroke-miterlimit:10;" x1="6.366" y1="30.702" x2="6.366" y2="38.596"/>
	
		<line style="clip-path:url(#SVGID_2_);fill:none;stroke:#A0C34B;stroke-width:2;stroke-linecap:round;stroke-miterlimit:10;" x1="6.366" y1="1" x2="6.366" y2="21.737"/>
	<path style="clip-path:url(#SVGID_2_);fill:none;stroke:#A0C34B;stroke-width:2;stroke-linecap:round;stroke-miterlimit:10;" d="
		M35.036,30.047v0.002c-0.622,0-1.188-0.254-1.599-0.666c-0.409-0.407-0.662-0.976-0.66-1.595v-3.673h-0.002
		c0-0.623,0.256-1.188,0.668-1.6c0.406-0.405,0.974-0.659,1.596-0.659l6.207,0.002c0.621,0,1.188,0.254,1.601,0.666
		c0.404,0.408,0.66,0.973,0.66,1.595l-0.004,3.671h0.004c0,0.622-0.256,1.189-0.666,1.599c-0.407,0.408-0.974,0.66-1.597,0.66
		L35.036,30.047z"/>
	
		<line style="clip-path:url(#SVGID_2_);fill:none;stroke:#A0C34B;stroke-width:2;stroke-linecap:round;stroke-miterlimit:10;" x1="38.141" y1="30.702" x2="38.141" y2="38.596"/>
	
		<line style="clip-path:url(#SVGID_2_);fill:none;stroke:#A0C34B;stroke-width:2;stroke-linecap:round;stroke-miterlimit:10;" x1="38.141" y1="1" x2="38.141" y2="21.737"/>
</g>
</svg>
