<?xml version="1.0" encoding="utf-8"?>
<!-- Generator: Adobe Illustrator 16.0.0, SVG Export Plug-In . SVG Version: 6.00 Build 0)  -->
<!DOCTYPE svg PUBLIC "-//W3C//DTD SVG 1.1//EN" "http://www.w3.org/Graphics/SVG/1.1/DTD/svg11.dtd">
<svg version="1.1" id="Слой_1" xmlns="http://www.w3.org/2000/svg" xmlns:xlink="http://www.w3.org/1999/xlink" x="0px" y="0px"
	 width="34.32px" height="34.339px" viewBox="0 0 34.32 34.339" style="enable-background:new 0 0 34.32 34.339;"
	 xml:space="preserve">
<g>
	<defs>
		<rect id="SVGID_1_" width="34.32" height="34.339"/>
	</defs>
	<clipPath id="SVGID_2_">
		<use xlink:href="#SVGID_1_"  style="overflow:visible;"/>
	</clipPath>
	<path style="clip-path:url(#SVGID_2_);fill:none;stroke:#A0C34B;stroke-width:2;stroke-miterlimit:10;" d="M9.109,1.914
		c0.143,0.143,0.273,0.301,0.389,0.475l3.35,5.076c0.973,1.455-0.229,2.683-1.106,3.58l-0.289,0.297
		c-0.544,0.571-0.722,1.226-0.265,3.413c0.002,0.013,0.503,2.077,3.383,5.009l0.382,0.389c2.717,2.541,4.596,2.996,4.615,3
		c2.18,0.455,2.835,0.277,3.405-0.267l0.297-0.289c0.897-0.877,2.125-2.079,3.584-1.104l5.069,3.347
		c1.438,0.964,1.83,2.913,0.872,4.348l-2.059,2.738c-0.78,1.038-2.059,1.565-3.336,1.377c-7.164-1.06-11.2-3.183-17.277-9.085
		l-0.457-0.444l0.027-0.026c-5.578-5.833-7.623-9.845-8.657-16.833C0.85,5.636,1.376,4.358,2.415,3.578l2.709-2.037
		C6.411,0.681,8.074,0.877,9.109,1.914z"/>
</g>
</svg>
