<svg xmlns="http://www.w3.org/2000/svg" xmlns:xlink="http://www.w3.org/1999/xlink" width="34.32" height="34.339" viewBox="0 0 34.32 34.339">
    <defs>
        <path id="a" d="M0 0h34.32v34.339H0z"/>
    </defs>
    <clipPath id="b">
        <use xlink:href="#a" overflow="visible"/>
    </clipPath>
    <path d="M9.109 1.914c.143.143.273.301.389.475l3.35 5.076c.973 1.455-.229 2.683-1.106 3.58l-.289.297c-.544.571-.722 1.226-.265 3.413.002.013.503 2.077 3.383 5.009l.382.389c2.717 2.541 4.596 2.996 4.615 3 2.18.455 2.835.277 3.405-.267l.297-.289c.897-.877 2.125-2.079 3.584-1.104l5.069 3.347a3.142 3.142 0 0 1 .872 4.348l-2.059 2.738a3.53 3.53 0 0 1-3.336 1.377c-7.164-1.06-11.2-3.183-17.277-9.085l-.457-.444.027-.026C4.115 17.915 2.07 13.903 1.036 6.915a3.533 3.533 0 0 1 1.379-3.337l2.709-2.037a3.15 3.15 0 0 1 3.985.373z" clip-path="url(#b)" fill="none" stroke="#a0c34b" stroke-width="2" stroke-miterlimit="10"/>
</svg>
