<?xml version="1.0" encoding="utf-8"?>
<!-- Generator: Adobe Illustrator 16.0.0, SVG Export Plug-In . SVG Version: 6.00 Build 0)  -->
<!DOCTYPE svg PUBLIC "-//W3C//DTD SVG 1.1//EN" "http://www.w3.org/Graphics/SVG/1.1/DTD/svg11.dtd">
<svg version="1.1" id="Слой_1" xmlns="http://www.w3.org/2000/svg" xmlns:xlink="http://www.w3.org/1999/xlink" x="0px" y="0px"
	 width="328.371px" height="46.059px" viewBox="0 0 328.371 46.059" style="enable-background:new 0 0 328.371 46.059;"
	 xml:space="preserve">
<g>
	<defs>
		<rect id="SVGID_1_" y="0" width="328.371" height="46.059"/>
	</defs>
	<clipPath id="SVGID_2_">
		<use xlink:href="#SVGID_1_"  style="overflow:visible;"/>
	</clipPath>
	<path style="clip-path:url(#SVGID_2_);fill:#FFFFFF;" d="M9.031,10.357c3.268-0.795,7.324-1.439,10.65-1.439
		c7.617,0,11.865,2.226,11.865,9.707V44.17c0,0.609-0.338,1.014-1.012,1.014h-6.875c-0.675,0-1.079-0.404-1.079-1.014V19.972
		c0-3.303-1.146-4.851-4.853-4.851c-4.179,0-8.696,1.077-8.696,1.077V44.17c0,0.609-0.336,1.014-1.01,1.014H1.146
		C0.471,45.184,0,44.779,0,44.17V2.563C0,1.753,0.337,1.28,1.146,1.146L7.751,0h0.27c0.607,0,1.01,0.404,1.01,1.078v5.347V10.357z"
		/>
	<path style="clip-path:url(#SVGID_2_);fill:#FFFFFF;" d="M54.104,46.059c-14.896,0-16.782-8.222-16.782-18.537
		c0-10.378,1.886-18.604,16.782-18.604c14.965,0,16.785,8.225,16.785,18.604C70.889,37.837,69.069,46.059,54.104,46.059
		 M54.104,15.189c-7.212,0-7.481,4.246-7.481,12.333c0,8.022,0.269,12.269,7.481,12.269c7.213,0,7.551-4.246,7.551-12.269
		C61.655,19.435,61.317,15.189,54.104,15.189"/>
	<path style="clip-path:url(#SVGID_2_);fill:#FFFFFF;" d="M88.176,45.991c-5.862,0-11.187-1.549-12.333-2.021
		c-0.271-0.136-0.674-0.271-0.674-0.944v-0.337l0.808-3.841c0.068-0.54,0.337-0.742,0.741-0.742h0.337
		c0.809,0.202,5.663,1.685,10.246,1.685c3.707,0,6.538-1.146,6.538-4.381c0-3.978-2.696-4.045-6.673-4.717
		c-4.112-0.743-11.594-1.484-11.594-10.786c0-9.64,8.426-10.988,14.357-10.988c5.462,0,9.774,1.215,10.921,1.484
		c0.606,0.134,0.808,0.539,0.808,0.943c0,0.068,0,0.136-0.066,0.203l-0.676,4.043c-0.066,0.472-0.471,0.608-0.808,0.608h-0.27
		c-0.741-0.136-5.055-1.078-8.695-1.078c-3.236,0-6.674,0.739-6.674,4.11c0,3.776,3.641,3.979,7.28,4.517
		c5.326,0.875,11.056,2.089,11.056,10.854C102.805,43.429,96.266,45.991,88.176,45.991"/>
	<path style="clip-path:url(#SVGID_2_);fill:#FFFFFF;" d="M129.716,43.497c0,0.473-0.269,0.876-0.809,1.012
		c-1.146,0.337-4.11,1.281-8.425,1.281c-7.684,0-11.525-2.968-11.525-10.583V2.77c0-0.807,0.404-1.211,1.145-1.414l6.605-1.213
		h0.338c0.607,0,0.944,0.336,0.944,1.079v8.574h9.638c0.607,0,1.011,0.403,1.011,1.012v4.581c0,0.608-0.404,0.944-1.011,0.944
		h-9.638v18.671c0,2.967,1.213,4.181,4.718,4.181c2.022,0,3.976-0.337,5.122-0.606h0.269c0.405,0,0.675,0.27,0.742,0.739l0.81,3.843
		C129.65,43.297,129.716,43.362,129.716,43.497"/>
	<path style="clip-path:url(#SVGID_2_);fill:#FFFFFF;" d="M168.181,45.184H157.15c-0.433,0-0.772-0.386-0.915-0.771l-11.853-29.534
		h-1.589l0.434,29.583c0,0.434-0.338,0.723-0.82,0.723h-5.298c-0.434,0-0.771-0.289-0.771-0.723V10.302
		c0-0.385,0.384-0.722,0.818-0.722h11.563c0.433,0,0.819,0.29,0.963,0.674l12.093,30.738h0.674l-0.288-30.641
		c0-0.626,0.433-0.771,0.963-0.771h4.914c0.578,0,0.965,0.193,0.965,0.771v34.11C169.002,44.895,168.664,45.184,168.181,45.184"/>
	<path style="clip-path:url(#SVGID_2_);fill:#FFFFFF;" d="M191.114,45.809c-13.973,0-16.862-7.371-16.862-18.402
		c0-11.083,2.89-18.454,16.862-18.454s16.86,7.371,16.86,18.454C207.975,38.438,205.087,45.809,191.114,45.809 M191.114,14.012
		c-8.77,0-9.731,4.625-9.731,13.345c0,8.769,0.914,13.395,9.683,13.395c8.816,0,9.78-4.674,9.78-13.395
		C200.846,18.588,199.882,14.012,191.114,14.012"/>
	<path style="clip-path:url(#SVGID_2_);fill:#FFFFFF;" d="M264.583,45.184h-14.452c-0.434,0-0.771-0.338-0.771-0.771V10.351
		c0-0.434,0.338-0.771,0.771-0.771h14.452c11.803,0,16.333,4.528,16.333,17.775C280.916,40.654,276.386,45.184,264.583,45.184
		 M263.765,14.543h-7.469v25.678l7.469-0.047c7.228,0,10.069-2.073,10.069-12.864C273.834,16.518,270.992,14.543,263.765,14.543"/>
	<path style="clip-path:url(#SVGID_2_);fill:#FFFFFF;" d="M293.25,45.184h-5.35c-0.431,0-0.77-0.289-0.77-0.723v-34.11
		c0-0.434,0.289-0.626,0.723-0.675l5.491-0.722h0.096c0.387,0,0.627,0.336,0.627,0.674v34.833
		C294.067,44.895,293.73,45.184,293.25,45.184"/>
	<path style="clip-path:url(#SVGID_2_);fill:#FFFFFF;" d="M328.371,42.92c0,0.337-0.146,0.672-0.82,0.914
		c-1.879,0.578-5.444,1.638-11.274,1.638c-12.186,0-16.236-5.637-16.236-18.162c0-12.528,4.051-18.163,16.236-18.163
		c5.83,0,9.396,1.155,11.274,1.732c0.674,0.194,0.82,0.579,0.82,0.868c0,0.098,0,0.242-0.051,0.338l-0.627,3.131
		c-0.047,0.433-0.337,0.627-0.72,0.627c-0.147,0-0.291-0.049-0.436-0.096c-1.731-0.434-5.443-1.398-9.153-1.398
		c-8.333,0-10.262,3.903-10.262,12.914c0,9.054,1.929,13.006,10.262,13.006c3.71,0,7.422-0.867,9.153-1.301
		c0.145-0.048,0.288-0.095,0.436-0.095c0.383,0,0.673,0.191,0.72,0.624l0.627,3.084C328.371,42.678,328.371,42.821,328.371,42.92"/>
	<path style="clip-path:url(#SVGID_2_);fill:#FFFFFF;" d="M220.166,21.009v-6.466h9.056c4.339,0,5.877,1.925,5.877,6.021
		c0,4.625-2.794,5.638-7.176,5.831l-1.237,0.052c-0.916,0.041-1.635,0.792-1.635,1.709v1.498c0,0.909,0.724,1.653,1.635,1.677
		l1.043,0.026c4.289,0.144,7.419,1.107,7.612,5.106l0.48,8.046c0,0.433,0.29,0.675,0.818,0.675h5.446
		c0.434,0,0.674-0.579,0.674-0.771l-0.288-6.648c-0.337-6.938-3.42-7.998-8.384-8.336V28.08c6.118-0.724,8.047-3.565,8.047-8.625
		c0-7.466-4.481-9.876-11.804-9.876h-16.283c-0.436,0-0.819,0.337-0.819,0.772v34.11c0,0.434,0.338,0.723,0.771,0.723h5.347
		c0.48,0,0.82-0.289,0.82-0.723V21.009z"/>
</g>
</svg>
